<?xml version="1.0" encoding="UTF-8"?>
<!DOCTYPE svg PUBLIC "-//W3C//DTD SVG 1.1//EN" "http://www.w3.org/Graphics/SVG/1.1/DTD/svg11.dtd">
<svg version="1.1" xmlns="http://www.w3.org/2000/svg" xmlns:xlink="http://www.w3.org/1999/xlink" x="0" y="0" width="650" height="895" viewBox="0, 0, 650, 895">
  <g id="Layer_1">
    <path d="M188.82,820.597 C187.606,819.968 186.113,820.44 185.484,821.653 C184.855,822.866 185.329,824.359 186.542,824.988 C187.755,825.618 189.248,825.144 189.877,823.931 C190.506,822.718 190.033,821.225 188.82,820.597 M141.572,777.845 C140.359,777.216 138.867,777.689 138.236,778.901 C137.607,780.113 138.081,781.608 139.295,782.237 C140.506,782.866 142,782.392 142.63,781.181 C143.259,779.966 142.785,778.475 141.572,777.845 M84.329,717.24 C83.118,716.611 81.623,717.085 80.995,718.296 C80.364,719.509 80.839,721.003 82.051,721.631 C83.263,722.261 84.757,721.787 85.386,720.576 C86.017,719.363 85.543,717.869 84.329,717.24 M360.138,794.707 C360.167,795.047 360.177,795.391 360.187,795.733 C359.275,798.781 357.886,801.989 355.936,805.342 C353.206,810.026 349.322,815.994 344.286,822.546 C343.755,821.06 342.859,819.712 341.743,818.645 C339.276,816.312 336.175,815.123 333.147,814.282 C327.01,812.687 320.77,812.435 314.582,812.503 C308.357,812.59 302.15,813.472 296.114,814.954 C284.006,817.928 272.728,823.367 262.038,829.417 C251.307,835.434 241.028,842.141 230.148,847.449 C224.706,850.063 219.089,852.299 213.284,853.559 C207.491,854.84 201.499,855.005 195.761,853.757 C190.014,852.543 184.582,849.989 179.667,846.646 C177.18,845.009 174.875,843.092 172.595,841.151 C170.376,839.137 168.197,837.066 166.157,834.844 C162.048,830.434 158.242,825.715 154.67,820.814 C151.065,815.915 147.848,810.815 144.412,805.654 C137.538,795.432 129.929,785.615 121.107,776.89 C116.701,772.532 111.966,768.48 106.936,764.843 C101.916,761.183 96.563,758.017 91.26,754.972 C85.97,751.913 80.748,748.859 76.611,744.668 C72.433,740.525 69.503,735.25 67.411,729.636 C63.272,718.324 61.498,706.135 61.264,694.007 C61.013,681.843 62.244,669.661 64.126,657.599 C65.968,645.517 68.651,633.571 71.113,621.562 C71.714,618.558 72.294,615.542 72.726,612.496 C72.939,610.973 73.115,609.439 73.179,607.893 C73.199,607.057 73.206,606.203 73.122,605.354 C73.709,604.897 74.285,604.486 74.846,604.131 C102.484,586.562 125.626,652.767 122.073,675.249 C118.519,697.728 224.914,805.187 287.53,778.306 C326.327,761.647 352.406,765.307 359.494,779.281 C356.1,776.197 351.895,774.283 347.722,773.259 C343.04,772.11 338.321,771.964 333.737,772.255 C329.146,772.57 324.664,773.372 320.286,774.441 C311.534,776.607 303.191,779.832 295.117,783.503 C293.105,784.407 291.081,785.41 289.131,786.332 C287.237,787.256 285.283,788.055 283.303,788.785 C279.342,790.239 275.229,791.317 271.046,792.024 C262.674,793.464 254.041,793.47 245.527,792.433 C228.453,790.332 211.925,784.268 196.556,776.276 C181.172,768.227 166.835,758.135 153.756,746.637 C140.693,735.118 128.847,722.159 118.834,707.875 C108.876,693.596 100.636,677.913 96.116,661.025 C93.881,652.599 92.626,643.875 92.818,635.136 C92.998,626.407 94.682,617.676 98.033,609.576 C94.547,617.618 92.711,626.35 92.386,635.122 C92.048,643.904 93.164,652.712 95.276,661.24 C99.552,678.334 107.599,694.287 117.407,708.855 C127.269,723.434 139.01,736.712 152.022,748.572 C165.055,760.418 179.4,770.881 194.927,779.335 C210.445,787.726 227.24,794.244 244.97,796.729 C253.811,797.953 262.879,798.111 271.81,796.729 C276.273,796.048 280.692,794.973 284.975,793.479 C287.116,792.731 289.234,791.903 291.293,790.942 C293.32,790.026 295.239,789.121 297.239,788.266 C305.163,784.838 313.297,781.883 321.596,779.999 C325.742,779.067 329.927,778.407 334.085,778.202 C338.229,778.015 342.367,778.251 346.188,779.271 C349.993,780.286 353.466,782.098 355.923,784.791 C358.395,787.464 359.821,790.967 360.138,794.707 M253.426,859.683 C252.211,859.052 250.719,859.525 250.09,860.738 C249.461,861.952 249.933,863.445 251.145,864.074 C252.36,864.703 253.852,864.229 254.48,863.017 C255.109,861.806 254.637,860.311 253.426,859.683 M212.254,868.225 C211.042,867.596 209.548,868.069 208.92,869.282 C208.29,870.493 208.764,871.987 209.976,872.616 C211.189,873.247 212.682,872.773 213.311,871.56 C213.941,870.347 213.467,868.853 212.254,868.225 M137.644,832.309 C136.431,831.681 134.938,832.153 134.31,833.365 C133.681,834.578 134.153,836.072 135.366,836.701 C136.578,837.329 138.071,836.858 138.701,835.643 C139.33,834.432 138.857,832.938 137.644,832.309 M115.8,800.178 C114.586,799.548 113.093,800.021 112.464,801.234 C111.835,802.448 112.308,803.94 113.521,804.569 C114.733,805.198 116.226,804.726 116.855,803.511 C117.484,802.299 117.011,800.807 115.8,800.178 M81.999,779.856 C80.787,779.227 79.292,779.701 78.664,780.915 C78.035,782.127 78.508,783.62 79.721,784.249 C80.935,784.878 82.428,784.404 83.057,783.192 C83.686,781.98 83.212,780.485 81.999,779.856 M59.775,745.04 C58.561,744.411 57.068,744.885 56.439,746.099 C55.81,747.31 56.282,748.805 57.494,749.434 C58.707,750.063 60.201,749.59 60.83,748.376 C61.458,747.163 60.986,745.671 59.775,745.04 M342.442,823.573 C342.551,823.904 342.631,824.24 342.695,824.587 C311.485,864.021 239.813,921.406 127.425,852.007 C-13.157,765.197 43.962,629.159 72.57,605.794 C72.599,606.48 72.58,607.177 72.545,607.862 C72.45,609.373 72.243,610.884 72.002,612.388 C71.509,615.393 70.868,618.386 70.204,621.37 C67.489,633.299 64.542,645.214 62.43,657.317 C60.319,669.413 58.955,681.69 59.033,694.038 C59.116,706.37 60.741,718.788 64.851,730.578 C66.933,736.443 69.986,742.189 74.472,746.77 C78.928,751.39 84.437,754.57 89.694,757.661 C94.994,760.737 100.186,763.847 105.051,767.431 C109.93,770.995 114.51,774.951 118.791,779.225 C127.358,787.78 134.795,797.459 141.53,807.582 C144.856,812.634 148.162,817.913 151.797,822.899 C155.416,827.909 159.279,832.77 163.557,837.29 C165.67,839.572 167.942,841.715 170.264,843.804 C172.655,845.824 175.078,847.819 177.719,849.544 C182.93,853.055 188.795,855.803 195.058,857.098 C201.309,858.432 207.843,858.21 213.992,856.818 C220.166,855.448 225.997,853.085 231.572,850.38 C242.703,844.887 252.958,838.118 263.565,832.116 C274.146,826.114 285.096,820.679 296.794,817.634 C302.631,816.122 308.617,815.192 314.642,815.031 C320.669,814.879 326.804,815.066 332.565,816.487 C335.409,817.225 338.221,818.316 340.255,820.207 C341.264,821.147 342.026,822.29 342.442,823.573 M597.389,737.971 C592.028,740.156 590.79,755.209 584.747,756.911 C579.111,758.497 569.997,746.379 563.908,747.571 C558.101,748.71 554.366,763.378 548.27,764.182 C542.356,764.964 534.865,751.783 528.788,752.273 C522.795,752.754 517.558,766.966 511.508,767.187 C505.455,767.407 499.173,753.614 493.169,753.591 C487.065,753.571 480.695,767.314 474.748,767.065 C468.59,766.807 463.404,752.569 457.533,752.09 C451.314,751.583 443.854,764.773 438.094,764.046 C431.781,763.249 427.912,748.608 422.33,747.584 C415.837,746.392 406.799,758.59 401.571,757.145 C394.53,755.202 393.979,740.282 389.865,738.011 C389.865,738.011 383.468,738.88 383.032,744.959 C382.6,751.036 438.167,875.197 438.167,875.197 C438.167,875.197 441.784,877.142 448.172,879.751 L411.976,769.414 L455.884,882.687 C458.437,883.592 461.233,884.519 464.241,885.429 L434.88,769.414 L471.627,887.505 C474.041,888.13 476.562,888.731 479.17,889.292 L457.785,769.414 L486.324,890.686 C488.632,891.089 490.996,891.455 493.416,891.777 L480.692,769.414 L500.403,892.558 C502.662,892.767 504.956,892.934 507.291,893.052 L503.598,769.414 L514.17,893.248 C516.441,893.265 518.739,893.235 521.062,893.149 L526.502,769.414 L527.897,892.755 C530.244,892.562 532.616,892.307 535.002,891.996 L549.407,769.414 L541.85,890.933 C544.361,890.479 546.889,889.962 549.427,889.36 L572.313,769.414 L556.354,887.529 C559.158,886.708 561.973,885.781 564.794,884.753 L595.218,769.414 L571.867,881.958 C573.029,881.459 574.192,880.945 575.354,880.407 C583.603,871.725 619.841,742.168 619.841,742.168 C614.992,745.192 603.271,735.571 597.389,737.971 M524.405,548.093 C523.201,548.093 522.275,547.702 521.397,548.523 C520.577,549.288 521.074,550.29 521.074,551.413 C521.074,552.534 520.017,554.138 520.839,554.903 C521.718,555.722 523.203,552.424 524.407,552.424 C525.609,552.424 525.609,553.774 526.813,553.774 C528.015,553.774 527.293,553.357 528.172,552.537 C528.991,551.772 529.139,552.18 529.204,551.412 C529.3,550.293 529.29,550.734 528.47,549.967 C527.589,549.147 528.015,550.692 526.811,550.692 C525.609,550.692 525.609,548.093 524.405,548.093 M528.9,578.923 C507.719,591.648 488.674,589.921 481.292,582.54 C475.523,576.774 516.385,568.284 518.12,527.91 C518.811,511.86 554.212,563.722 528.9,578.923 M564.363,607.747 C563.23,606.689 563.776,608.68 562.227,608.68 C560.678,608.68 560.678,605.333 559.129,605.333 C557.579,605.333 556.388,604.828 555.257,605.884 C554.199,606.871 554.838,608.162 554.838,609.605 C554.838,611.051 553.479,613.115 554.537,614.1 C555.668,615.157 557.582,610.91 559.131,610.91 C560.68,610.91 560.68,612.649 562.229,612.649 C563.776,612.649 562.846,612.11 563.977,611.055 C565.034,610.068 565.223,610.594 565.308,609.604 C565.433,608.166 565.418,608.733 564.363,607.747 M540.132,623.22 C539.63,622.752 539.872,623.631 539.188,623.631 C538.502,623.631 538.502,622.153 537.816,622.153 C537.134,622.153 536.605,621.93 536.105,622.395 C535.639,622.833 535.923,623.404 535.923,624.043 C535.923,624.681 535.32,625.592 535.788,626.029 C536.289,626.495 537.134,624.618 537.819,624.618 C538.502,624.618 538.502,625.387 539.188,625.387 C539.872,625.387 539.461,625.147 539.961,624.682 C540.428,624.246 540.512,624.477 540.548,624.042 C540.604,623.405 540.597,623.656 540.132,623.22 M513.357,601.493 C513.145,600.6 513.492,600.659 512.974,600.302 C512.217,599.781 512.525,599.967 511.651,600.239 C510.712,600.534 511.982,600.859 511.495,601.712 C511.008,602.568 509.16,601.518 508.676,602.374 C508.188,603.227 507.538,603.729 507.766,604.684 C507.979,605.577 508.892,605.63 509.689,606.084 C510.486,606.538 511.199,607.933 512.075,607.659 C513.015,607.366 511.27,604.979 511.757,604.122 C512.241,603.268 513.201,603.811 513.688,602.956 C514.173,602.103 513.585,602.447 513.357,601.493 M559.748,634.047 C503.744,645.334 440.739,583.901 473.767,591.131 C512.117,599.522 513.27,586.964 537.584,586.959 C582.735,586.95 579.693,630.026 559.748,634.047 M542.545,656.99 C541.414,655.933 541.958,657.922 540.408,657.922 C538.859,657.922 538.859,654.576 537.311,654.576 C535.764,654.576 534.571,654.071 533.438,655.127 C532.384,656.113 533.02,657.405 533.02,658.85 C533.02,660.295 531.661,662.359 532.719,663.344 C533.852,664.401 535.764,660.155 537.313,660.155 C538.861,660.155 538.861,661.892 540.411,661.892 C541.96,661.892 541.03,661.355 542.161,660.298 C543.218,659.313 543.404,659.838 543.489,658.85 C543.614,657.409 543.603,657.975 542.545,656.99 M501.27,641.411 C500.771,640.944 501.011,641.822 500.325,641.822 C499.643,641.822 499.643,640.343 498.957,640.343 C498.271,640.343 497.746,640.121 497.246,640.589 C496.779,641.022 497.061,641.593 497.061,642.231 C497.061,642.872 496.461,643.783 496.929,644.218 C497.428,644.685 498.274,642.808 498.957,642.808 C499.643,642.808 499.643,643.576 500.328,643.576 C501.011,643.576 500.6,643.341 501.102,642.874 C501.566,642.436 501.649,642.67 501.688,642.231 C501.742,641.596 501.737,641.848 501.27,641.411 M484.095,665.611 C483.848,664.398 484.053,663.382 483.045,662.664 C482.103,661.992 481.191,662.696 480.059,662.927 C478.926,663.155 477.093,662.42 476.488,663.406 C475.84,664.461 479.474,665.286 479.719,666.5 C479.966,667.715 478.603,667.991 478.85,669.207 C479.095,670.419 479.368,669.605 480.377,670.324 C481.319,670.996 480.938,671.227 481.726,671.138 C482.873,671.006 482.425,671.086 483.032,670.1 C483.681,669.045 482.207,669.787 481.963,668.574 C481.716,667.359 484.339,666.825 484.095,665.611 M454.012,633.165 C453.512,632.698 453.752,633.578 453.066,633.578 C452.384,633.578 452.384,632.098 451.698,632.098 C451.014,632.098 450.487,631.876 449.987,632.342 C449.521,632.777 449.802,633.348 449.802,633.986 C449.802,634.627 449.202,635.537 449.67,635.973 C450.169,636.438 451.016,634.562 451.698,634.562 C452.384,634.562 452.384,635.33 453.069,635.33 C453.752,635.33 453.341,635.094 453.843,634.628 C454.308,634.19 454.391,634.424 454.43,633.985 C454.483,633.349 454.479,633.601 454.012,633.165 M584.471,661.461 C549.307,709.387 432.79,698.491 422.369,658.982 C411.951,619.478 445.548,592.433 468.123,608.495 C490.697,624.559 522.824,646.699 563.634,638.884 C604.441,631.071 590.184,653.675 584.471,661.461 M581.287,686.928 C581.534,688.144 580.171,688.421 580.418,689.634 C580.663,690.849 580.937,690.034 581.945,690.753 C582.888,691.425 582.506,691.656 583.294,691.564 C584.441,691.434 583.996,691.515 584.601,690.528 C585.249,689.473 583.775,690.216 583.531,689.001 C583.284,687.788 585.907,687.256 585.663,686.04 C585.416,684.826 585.621,683.811 584.613,683.092 C583.671,682.42 582.76,683.126 581.627,683.356 C580.494,683.585 578.661,682.849 578.057,683.833 C577.408,684.89 581.042,685.714 581.287,686.928 M543.529,723.686 C543.281,722.473 543.487,721.458 542.479,720.738 C541.537,720.066 540.626,720.772 539.493,721.003 C538.36,721.231 536.527,720.495 535.923,721.48 C535.273,722.536 538.906,723.361 539.153,724.575 C539.4,725.791 538.037,726.067 538.284,727.281 C538.529,728.497 538.803,727.682 539.812,728.4 C540.751,729.072 540.369,729.304 541.16,729.212 C542.308,729.082 541.862,729.161 542.467,728.175 C543.115,727.119 541.642,727.863 541.395,726.647 C541.15,725.435 543.773,724.903 543.529,723.686 M503.475,712.455 C502.976,711.988 503.216,712.866 502.53,712.866 C501.848,712.866 501.848,711.39 501.162,711.39 C500.477,711.39 499.951,711.167 499.451,711.633 C498.984,712.07 499.266,712.641 499.266,713.277 C499.266,713.917 498.664,714.829 499.134,715.264 C499.633,715.73 500.477,713.854 501.162,713.854 C501.848,713.854 501.848,714.623 502.533,714.623 C503.216,714.623 502.805,714.384 503.304,713.918 C503.771,713.483 503.854,713.714 503.894,713.276 C503.947,712.642 503.942,712.892 503.475,712.455 M476.393,736.425 C476.147,735.211 476.354,734.196 475.345,733.477 C474.402,732.804 473.492,733.512 472.359,733.74 C471.227,733.969 469.393,733.232 468.786,734.218 C468.138,735.274 471.771,736.099 472.02,737.313 C472.267,738.528 470.903,738.805 471.147,740.018 C471.395,741.234 471.669,740.419 472.678,741.139 C473.617,741.81 473.235,742.04 474.025,741.95 C475.174,741.819 474.729,741.898 475.333,740.913 C475.981,739.857 474.508,740.6 474.261,739.387 C474.016,738.173 476.64,737.641 476.393,736.425 M422.354,701.091 C422.107,699.876 422.313,698.861 421.305,698.141 C420.362,697.469 419.452,698.177 418.318,698.405 C417.186,698.635 415.353,697.898 414.748,698.884 C414.1,699.94 417.733,700.763 417.979,701.979 C418.226,703.194 416.862,703.47 417.109,704.684 C417.354,705.899 417.629,705.083 418.637,705.804 C419.579,706.475 419.195,706.705 419.983,706.616 C421.133,706.485 420.688,706.564 421.292,705.579 C421.94,704.522 420.468,705.267 420.223,704.051 C419.976,702.836 422.6,702.307 422.354,701.091 M565.369,682.443 C610.533,655.601 611.603,683.915 605.888,702.012 C586.011,764.96 440.918,761.889 407.922,735.263 C374.93,708.635 393.646,649.159 417.33,669.852 C450.279,698.644 526.651,705.451 565.369,682.443 M250.716,503.074 C250.716,501.774 249.664,500.725 248.367,500.725 C247.07,500.725 246.018,501.774 246.018,503.074 C246.018,504.371 247.07,505.424 248.367,505.424 C249.664,505.424 250.716,504.371 250.716,503.074 M192.941,417.57 C192.941,416.273 191.89,415.221 190.592,415.221 C189.293,415.221 188.242,416.273 188.242,417.57 C188.242,418.867 189.293,419.92 190.592,419.92 C191.89,419.92 192.941,418.867 192.941,417.57 M186.549,457.033 C186.549,455.734 185.499,454.683 184.199,454.683 C182.902,454.683 181.85,455.734 181.85,457.033 C181.85,458.331 182.902,459.383 184.199,459.383 C185.499,459.383 186.549,458.331 186.549,457.033 M273.323,520.598 C273.323,521.893 274.375,522.946 275.672,522.946 C276.972,522.946 278.022,521.893 278.022,520.598 C278.022,519.299 276.972,518.248 275.672,518.248 C274.375,518.248 273.323,519.299 273.323,520.598 M261.516,608.775 C264.986,593.69 263.695,573.064 257.449,552.991 C248.482,524.174 232.001,503.723 212.234,496.879 C209.438,495.912 206.712,494.752 204.068,493.423 C203.984,493.3 203.91,493.172 203.822,493.049 L203.637,493.195 C178.333,480.269 160.415,451.975 157.053,429.374 C156.94,428.619 156.852,427.874 156.771,427.135 C160.122,412.529 167.114,400.713 177.639,397.553 C184.415,395.518 201.642,407.712 204.064,448.059 C206.485,488.407 241.41,486.73 254.333,491.847 C262.156,494.942 310.372,494.313 274.822,592.574 C270.406,604.779 265.307,608.442 261.516,608.775 M258.866,608.454 C262.322,593.887 261.054,573.613 254.884,553.79 C246.174,525.797 230.308,505.98 211.355,499.42 C209.74,498.859 208.154,498.225 206.588,497.547 C207.339,498.926 208.037,500.314 208.719,501.724 C210.123,504.683 211.397,507.691 212.482,510.771 C213.564,513.849 214.499,516.991 215.039,520.218 C215.247,521.484 215.391,522.765 215.42,524.051 C231.486,537.528 247.026,560.116 255.927,605.74 C256.109,606.667 257.206,607.869 258.866,608.454 M155.372,434.863 C152.623,455.033 156.162,478.274 166.257,491.416 C176.511,504.764 195.967,508.02 214.804,523.539 C214.654,522.483 214.432,521.438 214.163,520.405 C213.349,517.321 212.154,514.346 210.822,511.445 C209.487,508.547 207.974,505.728 206.35,502.991 C204.72,500.278 202.959,497.56 201.01,495.269 L201.335,495.013 C177.674,482.401 160.471,456.832 155.372,434.863 M142.273,489.985 C142.273,488.687 141.221,487.636 139.924,487.636 C138.624,487.636 137.574,488.687 137.574,489.985 C137.574,491.282 138.624,492.335 139.924,492.335 C141.221,492.335 142.273,491.282 142.273,489.985 M150.551,472.88 C152.168,478.284 155.004,487.726 167.006,501.983 C160.466,501.469 153.882,501.775 147.454,502.848 C137.371,504.528 127.596,507.768 118.541,512.37 C109.496,516.966 101.018,522.77 93.912,530.016 C90.386,533.646 87.2,537.651 84.816,542.129 C83.789,544.24 82.851,546.411 82.311,548.703 C81.799,548.186 81.294,547.569 80.794,546.832 C77.24,541.586 81.307,532.669 85.344,526.112 C100.873,500.898 138.803,471.266 148.713,471.266 C148.901,471.266 149.081,471.276 149.248,471.298 C150.041,471.4 150.203,471.725 150.311,472.078 L150.551,472.88 z M101.102,542.511 C116.172,531.659 140.943,513.811 184.708,520.018 C178.933,514.823 174.182,510.058 170.247,505.697 C162.88,504.534 155.302,504.487 147.846,505.507 C138.02,506.845 128.355,509.722 119.324,513.983 C110.303,518.233 101.767,523.708 94.544,530.649 C90.959,534.13 87.696,537.991 85.21,542.342 C84.114,544.435 83.1,546.599 82.503,548.897 C83.436,549.781 84.394,550.308 85.399,550.484 C89.114,551.142 94.405,547.335 101.102,542.511 M332.705,453.264 C332.705,454.562 333.757,455.613 335.055,455.613 C336.352,455.613 337.403,454.562 337.403,453.264 C337.403,451.966 336.352,450.914 335.055,450.914 C333.757,450.914 332.705,451.966 332.705,453.264 M276.725,603.095 C281.509,592.827 287.674,572.566 289.5,560.043 C290.059,556.2 292.647,552.953 296.278,551.575 C318.433,543.161 332.538,528.339 331.033,482.913 C329.935,449.723 293.83,435.49 281.11,431.497 C278.453,430.662 276.438,428.485 275.822,425.768 C275.184,422.973 274.177,419.031 272.696,414.437 C276.736,414.019 280.846,414.021 284.93,414.371 C290.795,414.873 296.622,416.042 302.292,417.729 C313.633,421.116 324.4,426.564 333.791,433.804 C336.738,436.07 339.523,438.548 342.151,441.183 L342.107,441.226 C342.234,441.334 342.364,441.427 342.492,441.521 C348.092,447.202 352.883,453.669 356.456,460.803 C359.095,466.109 361.05,471.75 362.271,477.554 C363.446,483.368 363.943,489.332 363.666,495.276 C363.451,501.224 362.436,507.131 361.129,512.972 C359.824,518.81 358.113,524.562 356.072,530.189 C351.99,541.458 346.467,552.182 340.079,562.341 C333.716,572.533 326.42,582.112 319.276,591.793 C317.642,594.038 316.012,596.297 314.439,598.594 C295.2,605.811 278.952,606.828 276.725,603.095 M283.048,393.765 C283.048,395.061 284.101,396.114 285.398,396.114 C286.695,396.114 287.748,395.061 287.748,393.765 C287.748,392.468 286.695,391.415 285.398,391.415 C284.101,391.415 283.048,392.468 283.048,393.765 M328.006,403.892 C328.006,405.189 329.059,406.241 330.355,406.241 C331.652,406.241 332.705,405.189 332.705,403.892 C332.705,402.595 331.652,401.542 330.355,401.542 C329.059,401.542 328.006,402.595 328.006,403.892 M361.165,413.904 C371.932,425.933 379.046,439.281 383.363,452.996 C382.13,452.024 380.854,451.112 379.523,450.282 C377.338,448.942 375.039,447.784 372.673,446.798 C367.935,444.813 362.928,443.549 357.913,442.614 C355.406,442.14 352.889,441.753 350.416,441.317 C349.183,441.098 347.954,440.869 346.799,440.558 C345.671,440.268 344.494,439.816 344.012,439.33 L343.921,439.421 C341.251,436.677 338.422,434.09 335.421,431.724 C325.85,424.146 314.864,418.4 303.202,414.751 C297.367,412.933 291.352,411.642 285.234,411.036 C280.707,410.59 276.11,410.537 271.536,411.016 C268.244,401.642 263.112,390.282 255.361,380.322 C254.132,378.74 254.953,376.444 256.906,376.003 C275.416,371.828 327.8,376.628 361.165,413.904 M381.347,484.751 C381.347,483.452 380.294,482.401 378.997,482.401 C377.699,482.401 376.647,483.452 376.647,484.751 C376.647,486.049 377.699,487.1 378.997,487.1 C380.294,487.1 381.347,486.049 381.347,484.751 M377.242,544.057 C364.55,572.418 337.759,589.728 314.988,598.385 C316.499,596.248 318.053,594.14 319.618,592.045 C326.868,582.455 334.286,572.95 340.793,562.798 C347.323,552.673 353.011,541.949 357.264,530.633 C359.391,524.978 361.185,519.192 362.57,513.306 C363.955,507.432 365.068,501.44 365.37,495.357 C365.732,489.288 365.307,483.165 364.176,477.174 C362.998,471.188 361.06,465.348 358.409,459.846 C355.5,453.841 351.75,448.282 347.406,443.231 C348.297,443.389 349.181,443.524 350.057,443.64 C352.59,443.974 355.096,444.244 357.585,444.602 C362.558,445.304 367.484,446.32 372.184,448.049 C374.53,448.909 376.818,449.935 379.012,451.149 C380.663,452.082 382.252,453.129 383.767,454.279 C393.443,486.392 387.847,520.356 377.242,544.057 M75.604,539.061 C75.843,538.7 76.064,538.328 76.258,537.943 C76.285,537.882 76.308,537.818 76.334,537.755 C76.605,536.51 76.981,535.213 77.479,533.85 C77.5,533.705 77.53,533.562 77.547,533.414 C77.983,530.288 77.643,527.099 77.126,523.984 C76.02,517.736 74.062,511.646 72.004,505.602 C67.939,493.491 63.113,481.528 60.609,468.675 C60.285,467.087 60.07,465.42 59.882,463.746 C59.782,462.086 59.674,460.421 59.711,458.774 C59.73,455.468 60.016,452.197 60.457,448.96 C61.341,442.482 62.763,436.114 64.625,429.883 C67.332,420.955 70.838,412.269 75.163,403.985 C73.884,404.942 72.598,405.884 71.304,406.809 C64.13,411.918 56.829,416.777 49.95,422.188 C46.052,425.294 42.249,428.581 38.824,432.2 C34.263,463.64 40.372,503.383 75.604,539.061 M76.138,538.729 C76.02,538.9 75.905,539.073 75.779,539.237 C75.861,539.319 75.943,539.404 76.028,539.487 C76.062,539.236 76.093,538.987 76.138,538.729 M157.461,346.394 C157.461,345.099 156.409,344.045 155.112,344.045 C153.813,344.045 152.763,345.099 152.763,346.394 C152.763,347.693 153.813,348.744 155.112,348.744 C156.409,348.744 157.461,347.693 157.461,346.394 M111.679,348.744 C111.679,347.448 110.629,346.394 109.329,346.394 C108.032,346.394 106.979,347.448 106.979,348.744 C106.979,350.042 108.032,351.093 109.329,351.093 C110.629,351.093 111.679,350.042 111.679,348.744 M208.426,347.751 C210.721,349.071 212.921,350.418 215.065,351.782 C214.326,352.534 213.506,353.204 212.608,353.755 C209.954,355.456 206.927,356.486 203.856,357.213 C197.682,358.63 191.296,359.044 184.929,359.257 C178.553,359.475 172.154,359.467 165.746,359.453 C159.339,359.432 152.915,359.479 146.481,359.624 C140.05,359.767 133.602,360.081 127.163,360.71 C125.577,360.815 123.882,361.131 122.227,361.376 C121.387,361.47 120.588,361.741 119.77,361.929 C118.959,362.146 118.136,362.33 117.334,362.574 C114.16,363.65 111.029,364.898 108.147,366.577 C102.316,369.83 97.163,374.112 92.644,378.88 C88.119,383.658 84.16,388.907 80.642,394.401 C79.699,395.906 78.789,397.428 77.905,398.964 C75.414,401.131 72.773,403.172 70.112,405.184 C63.11,410.446 55.897,415.516 49.104,421.144 C45.622,424.068 42.206,427.142 39.085,430.482 C40.245,423.182 41.968,416.348 44.023,410.146 C58.318,367.042 115.971,294.621 208.426,347.751 M242.962,604.808 C246.825,604.138 249.363,600.42 248.624,596.57 C246.287,584.387 239.042,560.417 231.593,554.979 C186.708,555.045 160.797,542.837 141.464,525.545 C124.789,530.05 112.998,538.365 103.828,544.964 C105.762,546.163 107.836,547.255 109.922,548.296 C112.585,549.619 115.307,550.854 118.057,552.036 C123.557,554.396 129.163,556.552 134.816,558.569 C146.138,562.578 157.662,566.055 169.35,568.869 C181.037,571.65 192.901,573.872 204.9,574.631 C210.894,574.982 216.933,574.975 222.88,574.112 C225.849,573.676 228.795,573.017 231.607,571.949 C234.422,570.911 237.092,569.423 239.321,567.384 C237.143,569.476 234.497,571.045 231.688,572.157 C228.886,573.302 225.932,574.041 222.951,574.554 C216.982,575.574 210.897,575.731 204.857,575.525 C192.76,575.061 180.775,573.124 168.955,570.617 C157.129,568.079 145.455,564.869 133.947,561.112 C128.198,559.22 122.491,557.185 116.855,554.931 C114.036,553.802 111.236,552.615 108.466,551.323 C105.844,550.092 103.251,548.805 100.709,547.201 C97.139,549.745 94.04,551.816 91.198,553.016 C98.722,558.993 107.195,564.797 116.726,570.364 C183.93,609.619 227.43,607.506 242.962,604.808 M243.668,459.383 C243.668,460.681 244.72,461.731 246.018,461.731 C247.314,461.731 248.367,460.681 248.367,459.383 C248.367,458.084 247.314,457.033 246.018,457.033 C244.72,457.033 243.668,458.084 243.668,459.383 M254.781,422.269 C254.781,423.566 255.832,424.619 257.131,424.619 C258.428,424.619 259.48,423.566 259.48,422.269 C259.48,420.972 258.428,419.92 257.131,419.92 C255.832,419.92 254.781,420.972 254.781,422.269 M236.828,385.558 C236.828,384.262 235.778,383.208 234.478,383.208 C233.181,383.208 232.128,384.262 232.128,385.558 C232.128,386.855 233.181,387.907 234.478,387.907 C235.778,387.907 236.828,386.855 236.828,385.558 M232.128,428.534 C232.128,427.237 231.079,426.184 229.779,426.184 C228.482,426.184 227.43,427.237 227.43,428.534 C227.43,429.831 228.482,430.884 229.779,430.884 C231.079,430.884 232.128,429.831 232.128,428.534 M204.767,383.208 C204.767,381.912 203.714,380.858 202.417,380.858 C201.12,380.858 200.068,381.912 200.068,383.208 C200.068,384.506 201.12,385.558 202.417,385.558 C203.714,385.558 204.767,384.506 204.767,383.208 M250.784,483.974 C229.848,487.527 205.981,464.853 206.607,447.475 C215.068,422.91 215.653,393.596 160.979,386.484 C103.301,378.979 85.249,456.676 110.8,490.102 C111.052,490.43 111.299,490.755 111.549,491.081 C99.941,501.5 88.749,513.753 82.293,524.234 C80.768,526.713 79.525,529.05 78.541,531.257 C78.77,528.775 78.615,526.27 78.356,523.809 C77.594,517.363 75.864,511.117 74.102,504.94 C72.286,498.772 70.308,492.672 68.526,486.542 C66.74,480.418 65.061,474.272 64.05,468.071 C63.777,466.509 63.63,464.99 63.499,463.476 C63.451,461.934 63.39,460.398 63.468,458.84 C63.553,455.734 63.862,452.613 64.344,449.509 C65.295,443.298 66.772,437.141 68.682,431.121 C72.464,419.075 77.658,407.42 84.42,396.804 C85.035,395.83 85.68,394.876 86.325,393.921 C86.377,393.857 86.433,393.794 86.487,393.73 C86.982,393.071 87.452,392.376 87.897,391.657 C90.337,388.228 92.958,384.939 95.817,381.885 C100.073,377.321 104.917,373.346 110.23,370.258 C112.863,368.66 115.7,367.487 118.573,366.452 C119.297,366.219 120.039,366.043 120.773,365.835 C121.512,365.653 122.234,365.386 122.992,365.294 C124.503,365.055 125.958,364.739 127.571,364.603 C133.884,363.909 140.237,363.427 146.612,363.102 C159.368,362.446 172.197,362.373 185.051,361.439 C191.46,360.902 197.926,360.225 204.175,358.405 C207.278,357.477 210.349,356.237 212.994,354.306 C213.908,353.653 214.728,352.879 215.449,352.023 C293.752,402.14 271.129,480.521 250.784,483.974 M570.223,502.693 C561.378,504.829 598.203,513.835 599.515,549.295 C600.2,567.835 629.39,499.642 623.957,478.148 C622.025,470.512 612.878,492.395 570.223,502.693 M627.689,431.081 C627.18,429.391 625.398,428.434 623.707,428.942 C622.016,429.452 621.06,431.235 621.568,432.925 C622.077,434.616 623.861,435.573 625.553,435.064 C627.241,434.555 628.198,432.77 627.689,431.081 M631.321,442.151 C625.501,448.948 619.035,455.225 612.075,460.908 C604.779,466.858 596.947,472.189 588.642,476.685 C580.332,481.161 571.526,484.806 562.322,487.1 C571.603,485.135 580.58,481.792 589.104,477.582 C597.628,473.353 605.724,468.255 613.323,462.497 C618.775,458.356 623.967,453.856 628.845,449.025 C627.687,451.684 626.289,454.356 624.63,457.004 C606.864,485.323 573.487,492.36 559.153,497.059 C544.816,501.759 518.991,470.119 528.58,468.8 C546.209,466.373 591.559,441.469 616.055,413.369 C627.635,400.086 638.024,419.163 631.321,442.151 M521.38,311.501 C521.889,313.191 523.671,314.149 525.364,313.64 C527.053,313.131 528.013,311.347 527.501,309.656 C526.992,307.966 525.21,307.009 523.517,307.519 C521.828,308.027 520.871,309.81 521.38,311.501 M527.775,337.548 C528.284,339.24 530.068,340.196 531.76,339.687 C533.448,339.178 534.407,337.395 533.896,335.705 C533.387,334.015 531.605,333.055 529.914,333.566 C528.223,334.074 527.266,335.86 527.775,337.548 M563.996,322.892 C564.505,324.582 566.289,325.539 567.98,325.031 C569.669,324.521 570.626,322.738 570.117,321.048 C569.608,319.357 567.826,318.4 566.135,318.909 C564.444,319.418 563.487,321.203 563.996,322.892 M513.58,377.551 C509.256,380.047 504.709,382.349 499.735,383.208 C504.738,382.517 509.4,380.353 513.825,377.991 C518.262,375.607 522.53,372.93 526.76,370.205 C535.203,364.744 543.482,359.044 552.065,353.89 C560.636,348.765 569.5,343.99 578.925,341.108 C583.624,339.68 588.46,338.75 593.267,338.718 C594.96,338.704 596.645,338.814 598.309,339.041 C598.125,343.1 596.108,345.882 592.787,346.418 C558.333,351.995 515.262,388.128 498.85,395.845 C482.439,403.564 475.864,399.916 475.844,382.097 C475.814,354.465 508.703,290.059 523.063,291.879 C575.051,298.466 595.303,321.315 598,335.292 C596.393,335.16 594.781,335.117 593.186,335.186 C587.938,335.399 582.844,336.573 577.993,338.226 C568.27,341.567 559.464,346.726 550.996,352.179 C542.523,357.66 534.437,363.638 526.196,369.367 C522.072,372.225 517.912,375.032 513.58,377.551 M582.087,377.822 C582.599,379.514 584.381,380.471 586.071,379.961 C587.763,379.452 588.72,377.668 588.211,375.978 C587.701,374.288 585.917,373.33 584.227,373.839 C582.537,374.35 581.578,376.131 582.087,377.822 M477.095,338.604 C463.211,368.018 461.52,403.324 481.723,407.556 C501.929,411.787 572.048,350.573 590.01,353.796 C605.935,356.655 616.149,360.9 619.581,378.951 C616.079,384.939 611.796,390.558 607.209,395.871 C601.057,402.957 594.275,409.54 587.085,415.639 C579.895,421.746 572.324,427.425 564.388,432.558 C556.443,437.659 548.147,442.307 539.272,445.659 C548.262,442.625 556.76,438.258 564.919,433.416 C573.076,428.542 580.896,423.099 588.367,417.201 C595.839,411.303 602.934,404.895 609.461,397.896 C613.353,393.694 617.063,389.276 620.384,384.54 C620.452,385.204 620.514,385.877 620.567,386.569 C622.457,411.143 525.717,474.826 508.871,455.929 C492.026,437.032 446.515,431.051 430.969,397.269 C415.424,363.491 472.049,293.846 483.289,286.553 C491.662,281.119 502.188,284.453 505.572,286.513 C508.96,288.577 492.729,305.483 477.095,338.604 M455.382,289.643 C454.875,287.954 453.091,286.996 451.4,287.504 C449.711,288.015 448.752,289.796 449.261,291.489 C449.772,293.179 451.554,294.136 453.245,293.628 C454.937,293.116 455.894,291.335 455.382,289.643 M424.09,309.656 C423.581,307.966 421.797,307.009 420.107,307.519 C418.414,308.027 417.46,309.81 417.969,311.501 C418.478,313.191 420.26,314.149 421.95,313.64 C423.642,313.131 424.599,311.347 424.09,309.656 M472.428,287.473 C428.563,329.067 418.424,378.001 417.026,385.106 C416.706,386.737 414.89,387.453 412.298,387.345 C411.948,384.389 412.059,381.277 412.372,378.189 C413.042,371.91 414.498,365.643 416.352,359.516 C418.199,353.38 420.489,347.362 423.191,341.53 C425.947,335.74 429.036,330.018 433.316,325.167 C428.783,329.79 425.365,335.394 422.288,341.08 C419.259,346.81 416.633,352.763 414.435,358.882 C412.232,365 410.414,371.283 409.369,377.8 C408.918,380.735 408.645,383.726 408.762,386.801 C399.572,384.512 386.064,375.282 386.173,360.984 C386.329,339.844 418.926,283.361 436.063,278.807 C449.129,275.334 481.711,278.672 472.428,287.473 M407.049,290.566 C393.191,292.603 334.21,318.208 340.977,350.369 C341.645,353.541 360.357,352.279 371.243,358.985 C371.275,357.311 371.368,355.641 371.53,353.982 C372.117,348.028 373.532,342.203 375.604,336.66 C379.772,325.576 386.451,315.589 394.751,307.381 C386.938,316.052 380.94,326.312 377.516,337.313 C375.811,342.812 374.782,348.498 374.553,354.19 C374.449,356.709 374.516,359.226 374.729,361.725 C374.961,361.958 375.191,362.193 375.409,362.44 C381.569,369.524 376.789,352.54 389.114,327.525 C397.719,310.058 412.337,293.808 407.049,290.566 M421.909,38.578 C424.895,43.398 428.482,47.827 432.465,51.845 C436.439,55.873 440.798,59.511 445.426,62.753 C454.714,69.202 465.068,74.077 475.864,77.264 C481.266,78.838 486.796,79.976 492.352,80.472 C493.739,80.608 495.13,80.63 496.515,80.695 C497.893,80.653 499.285,80.719 500.644,80.56 C503.37,80.385 506.082,79.89 508.424,78.885 C509.053,78.686 509.535,78.32 510.07,78.026 C510.345,77.878 510.604,77.723 510.805,77.535 C511.035,77.37 511.238,77.173 511.432,76.966 C512.225,76.15 512.826,75.121 513.25,73.971 C514.084,71.656 514.251,68.973 514.053,66.313 C513.634,60.956 511.929,55.613 509.73,50.552 C505.252,40.411 498.622,31.202 490.78,23.356 C484.189,16.76 476.623,11.171 468.414,6.883 C464.594,7.388 460.734,7.926 456.833,8.497 C459.777,9.879 462.599,11.455 465.325,13.156 C472.56,17.702 479.185,23.068 485.195,29.018 C491.194,34.975 496.642,41.496 501.141,48.634 C505.572,55.767 509.173,63.608 510.311,71.937 C508.732,63.685 504.763,56.159 500.031,49.369 C495.234,42.582 489.547,36.47 483.377,30.959 C477.197,25.455 470.458,20.578 463.302,16.594 C459.719,14.615 456.018,12.875 452.229,11.548 C450.44,10.911 448.62,10.395 446.804,10.026 C435.686,11.782 424.275,13.799 412.614,16.072 C413.157,18.495 413.791,20.897 414.566,23.257 C416.412,28.639 418.906,33.772 421.909,38.578 M594.209,96.461 C567.508,113.415 539.508,128.269 510.861,141.655 C482.217,155.076 452.787,166.759 423.022,177.419 C393.238,188.037 363.055,197.517 332.602,206.014 C302.12,214.405 271.37,221.804 240.435,228.3 C209.493,234.751 178.377,240.417 147.064,244.766 C115.763,249.137 84.307,252.544 52.731,254.164 C46.98,254.428 41.224,254.634 35.466,254.764 C93.013,272.329 215.775,259.965 351.243,219.151 C500.156,174.287 617.278,109.249 643.389,60.929 C639.973,63.742 636.515,66.507 633.012,69.213 C620.514,78.887 607.54,87.952 594.209,96.461 M109.063,145.679 C113.035,149.707 117.393,153.345 122.021,156.587 C131.309,163.037 141.664,167.911 152.459,171.097 C157.859,172.672 163.392,173.811 168.947,174.306 C170.336,174.441 171.725,174.464 173.11,174.531 C174.488,174.488 175.882,174.553 177.239,174.395 C179.965,174.22 182.679,173.725 185.02,172.718 C185.648,172.522 186.13,172.155 186.666,171.861 C186.94,171.714 187.2,171.558 187.401,171.371 C187.629,171.204 187.835,171.008 188.028,170.799 C188.82,169.986 189.422,168.955 189.845,167.805 C190.68,165.491 190.848,162.808 190.648,160.148 C190.229,154.789 188.526,149.448 186.329,144.387 C181.85,134.245 175.217,125.038 167.378,117.189 C161.331,111.14 154.465,105.934 147.036,101.802 C144.451,103.017 141.901,104.238 139.37,105.458 C140.229,105.957 141.079,106.466 141.921,106.99 C149.158,111.537 155.779,116.901 161.793,122.853 C167.791,128.809 173.237,135.331 177.736,142.468 C182.168,149.602 185.768,157.442 186.906,165.771 C185.326,157.52 181.358,149.995 176.627,143.204 C171.83,136.418 166.143,130.304 159.973,124.793 C153.793,119.291 147.054,114.413 139.897,110.429 C138.17,109.476 136.413,108.58 134.635,107.758 C120.892,114.499 107.998,121.315 96.036,128.139 C96.819,129.587 97.633,131.018 98.504,132.412 C101.49,137.233 105.078,141.663 109.063,145.679 M647.777,34.549 C647.303,32.974 646.669,31.458 645.896,29.994 C637.848,37.402 629.508,44.5 620.917,51.282 C608.741,60.927 596.11,69.998 583.162,78.589 C557.215,95.71 530.026,110.889 502.212,124.749 C495.252,128.205 488.25,131.578 481.214,134.874 C474.17,138.156 467.073,141.318 459.953,144.433 C445.712,150.65 431.334,156.555 416.855,162.189 C387.893,173.46 358.515,183.645 328.85,192.888 C299.151,202.025 269.17,210.232 238.971,217.532 C223.876,221.184 208.721,224.607 193.516,227.788 C178.317,230.995 163.051,233.888 147.738,236.495 C117.114,241.703 86.311,245.98 55.329,248.41 C44.543,249.205 33.732,249.781 22.915,249.959 C25.456,251.176 28.189,252.309 31.133,253.348 C38.301,253.112 45.467,252.745 52.626,252.282 C84.102,250.279 115.455,246.556 146.637,241.839 C208.999,232.343 270.824,219.246 331.571,202.294 C392.359,185.55 452.173,164.968 509.618,138.955 C538.323,125.941 566.383,111.432 593.206,94.856 C610.925,83.987 628.071,72.131 644.326,59.147 C648.741,50.281 650.021,42.003 647.777,34.549 M56.148,176.64 C56.441,177.618 57.477,178.172 58.455,177.877 C59.433,177.583 59.988,176.55 59.693,175.57 C59.398,174.592 58.365,174.038 57.386,174.332 C56.407,174.627 55.853,175.661 56.148,176.64 M74.017,155.022 C74.312,156.001 75.345,156.555 76.324,156.261 C77.303,155.967 77.856,154.934 77.562,153.954 C77.269,152.975 76.233,152.42 75.255,152.716 C74.277,153.01 73.722,154.043 74.017,155.022 M89.984,165.082 C90.279,166.061 91.311,166.615 92.29,166.32 C93.269,166.026 93.823,164.993 93.529,164.014 C93.234,163.035 92.203,162.481 91.221,162.775 C90.243,163.07 89.689,164.102 89.984,165.082 M206.047,98.841 C206.458,100.203 207.895,100.975 209.258,100.564 C210.619,100.154 211.39,98.717 210.981,97.354 C210.57,95.993 209.132,95.222 207.771,95.632 C206.409,96.043 205.637,97.479 206.047,98.841 M211.248,136.197 C210.27,136.492 209.715,137.524 210.01,138.504 C210.305,139.482 211.338,140.038 212.317,139.743 C213.296,139.448 213.852,138.415 213.555,137.436 C213.26,136.456 212.229,135.903 211.248,136.197 M232.093,111.292 C232.388,112.271 233.421,112.826 234.4,112.531 C235.378,112.236 235.934,111.204 235.638,110.224 C235.343,109.245 234.312,108.691 233.33,108.986 C232.353,109.28 231.798,110.314 232.093,111.292 M261.22,126.27 C261.708,127.887 263.414,128.804 265.031,128.315 C266.649,127.829 267.565,126.122 267.079,124.504 C266.59,122.887 264.884,121.972 263.266,122.458 C261.65,122.946 260.734,124.653 261.22,126.27 M349.672,69.703 C350.274,71.71 352.392,72.845 354.398,72.241 C356.402,71.637 357.538,69.52 356.937,67.515 C356.332,65.509 354.215,64.373 352.208,64.977 C350.203,65.582 349.068,67.697 349.672,69.703 M355.326,41.718 C355.619,42.698 356.652,43.253 357.631,42.957 C358.61,42.661 359.166,41.63 358.869,40.65 C358.576,39.672 357.543,39.117 356.564,39.412 C355.585,39.707 355.029,40.74 355.326,41.718 M400.267,37.636 C400.578,38.673 401.672,39.26 402.709,38.947 C403.744,38.635 404.332,37.541 404.021,36.506 C403.708,35.468 402.614,34.881 401.579,35.193 C400.541,35.505 399.954,36.599 400.267,37.636 M414.171,76.993 C414.657,78.61 416.365,79.527 417.983,79.04 C419.602,78.552 420.517,76.846 420.029,75.228 C419.542,73.611 417.837,72.695 416.219,73.182 C414.602,73.669 413.684,75.376 414.171,76.993 M520.604,14.603 C520.918,15.639 522.012,16.227 523.047,15.915 C524.084,15.602 524.672,14.509 524.358,13.471 C524.045,12.435 522.954,11.848 521.916,12.161 C520.879,12.473 520.291,13.567 520.604,14.603 M55.171,246.536 C43.651,247.599 32.1,248.422 20.535,248.764 C10.847,243.644 4.501,237.096 2.087,229.084 C-5.926,202.484 30.877,165.413 95.399,128.501 C96.15,129.975 96.933,131.434 97.775,132.859 C100.673,137.809 104.196,142.391 108.135,146.568 C112.066,150.755 116.401,154.564 121.028,157.979 C130.313,164.775 140.727,170.007 151.709,173.551 C157.207,175.304 162.867,176.623 168.657,177.283 C170.103,177.463 171.566,177.526 173.024,177.63 C174.496,177.624 175.959,177.725 177.443,177.596 C180.394,177.469 183.4,177.039 186.338,175.876 C187.082,175.651 187.785,175.197 188.499,174.813 C188.856,174.623 189.211,174.416 189.549,174.135 C189.901,173.884 190.221,173.598 190.523,173.292 C191.753,172.092 192.639,170.62 193.235,169.112 C194.411,166.073 194.627,162.93 194.49,159.921 C194.16,153.873 192.457,148.156 190.266,142.722 C185.789,131.869 179.098,122.083 171.047,113.606 C165.754,108.038 159.789,103.081 153.309,98.885 C179.956,86.605 209.284,74.677 240.622,63.518 C240.961,64.943 241.34,66.36 241.764,67.766 C243.484,73.223 245.868,78.466 248.783,83.402 C251.681,88.352 255.205,92.932 259.144,97.11 C263.073,101.297 267.409,105.107 272.036,108.521 C281.318,115.317 291.733,120.55 302.718,124.093 C308.216,125.847 313.874,127.165 319.663,127.827 C321.109,128.004 322.574,128.068 324.032,128.171 C325.502,128.166 326.966,128.267 328.451,128.138 C331.402,128.011 334.408,127.581 337.345,126.418 C338.089,126.193 338.794,125.739 339.506,125.355 C339.863,125.166 340.218,124.96 340.556,124.678 C340.908,124.426 341.229,124.14 341.53,123.836 C342.761,122.634 343.646,121.162 344.244,119.654 C345.419,116.614 345.634,113.473 345.497,110.463 C345.169,104.416 343.463,98.7 341.275,93.265 C336.797,82.412 330.104,72.624 322.056,64.147 C314.775,56.492 306.236,49.974 296.804,45.038 C297.413,44.854 298.014,44.667 298.622,44.485 C338.047,32.606 376.396,23.14 412.379,16.116 C412.861,18.564 413.438,20.994 414.16,23.39 C415.881,28.847 418.265,34.089 421.18,39.025 C424.077,43.975 427.602,48.556 431.539,52.733 C435.47,56.92 439.805,60.729 444.433,64.143 C453.715,70.94 464.131,76.173 475.112,79.716 C480.611,81.469 486.271,82.788 492.061,83.45 C493.507,83.627 494.971,83.691 496.429,83.794 C497.9,83.789 499.363,83.891 500.847,83.76 C503.798,83.634 506.806,83.204 509.743,82.041 C510.486,81.815 511.189,81.362 511.904,80.978 C512.261,80.789 512.613,80.583 512.954,80.301 C513.307,80.049 513.624,79.763 513.928,79.459 C515.156,78.257 516.045,76.785 516.64,75.277 C517.816,72.237 518.032,69.096 517.895,66.086 C517.564,60.039 515.861,54.322 513.671,48.888 C509.192,38.035 502.501,28.247 494.451,19.77 C489.437,14.496 483.827,9.758 477.741,5.704 C566.279,-4.941 631.035,2.802 645.712,29.678 C625.819,47.131 604.432,62.82 582.129,77.001 C556.052,93.748 528.788,108.589 500.903,122.08 C445.088,149.021 386.937,170.972 327.707,189.202 C268.535,207.655 208.199,222.402 147.224,233.584 C116.731,239.133 86.04,243.721 55.171,246.536 M242.17,67.634 C241.711,66.239 241.299,64.829 240.923,63.41 C250.146,60.13 259.546,56.919 269.098,53.782 C272.601,53.862 276.283,54.662 279.833,55.925 C283.622,57.252 287.322,58.993 290.904,60.971 C298.063,64.954 304.801,69.832 310.981,75.336 C317.151,80.847 322.838,86.959 327.634,93.746 C332.367,100.536 336.334,108.062 337.915,116.314 C336.777,107.985 333.177,100.144 328.742,93.01 C324.245,85.873 318.8,79.352 312.799,73.395 C306.789,67.445 300.166,62.08 292.928,57.533 C289.301,55.272 285.509,53.227 281.48,51.571 C280.643,51.225 279.792,50.904 278.927,50.601 C282.014,49.615 285.114,48.637 288.231,47.669 C289.246,48.075 290.256,48.484 291.253,48.931 C301.313,53.424 310.534,59.877 318.383,67.733 C326.227,75.579 332.856,84.788 337.335,94.929 C339.533,99.99 341.236,105.333 341.654,110.691 C341.855,113.35 341.687,116.033 340.852,118.349 C340.431,119.498 339.826,120.529 339.036,121.342 C338.843,121.551 338.637,121.747 338.409,121.912 C338.206,122.1 337.947,122.255 337.676,122.403 C337.137,122.697 336.654,123.063 336.025,123.262 C333.687,124.267 330.975,124.762 328.246,124.937 C326.89,125.096 325.497,125.03 324.117,125.072 C322.733,125.007 321.342,124.985 319.954,124.849 C314.397,124.353 308.868,123.215 303.467,121.641 C292.671,118.454 282.317,113.579 273.03,107.13 C268.4,103.889 264.042,100.249 260.068,96.222 C256.086,92.204 252.498,87.775 249.512,82.955 C246.512,78.149 244.017,73.015 242.17,67.634" fill="#0A0B09"/>
  </g>
</svg>
