<?xml version="1.0" encoding="utf-8"?>
<!-- Generator: Adobe Illustrator 16.0.0, SVG Export Plug-In . SVG Version: 6.00 Build 0)  -->
<!DOCTYPE svg PUBLIC "-//W3C//DTD SVG 1.1//EN" "http://www.w3.org/Graphics/SVG/1.1/DTD/svg11.dtd">
<svg version="1.1" id="bread" xmlns="http://www.w3.org/2000/svg" xmlns:xlink="http://www.w3.org/1999/xlink" x="0px" y="0px"
	 width="233px" height="183px" viewBox="0 0 233 183" enable-background="new 0 0 233 183" xml:space="preserve">
<g id="parts">
	<path fill="#C98829" d="M217,51.5c0-7.5-2.998-15-7.998-21.001C204.002,24.5,197,20.999,189.5,20c-8.999-1.501-20.999-2.002-32-2.5
		c2.5,2,5,3.999,7.5,6.499c6.499,7.5,12.498,17.5,12.498,27.5C177.498,60,172,67,163.499,69c-3.501,1.001-6.001,3.999-6.001,8
		L157,157.375c0,3.501-1.371,6.497-2.875,9.5L187,167c5.498,0,10-4.502,10-10V77.5C197,69,202.498,62,210.999,60
		C214.5,58.499,217,55.499,217,51.5"/>
	<path id="crust" fill="#EFCDA5" d="M167,51.5c0-15.5-12.002-29.5-27.5-31.499c-15-2.002-31.499-3-47.5-3s-32.5,0.999-47.5,3
		C29,22.5,17,35.999,17,51.5c0,3.999,2.5,7,6.001,8C31.5,61.5,37,69,37,77.5V157c0,5.498,4.5,10,10,10h90c5.498,0,10-4.502,10-10
		V77.5C147,69,152.498,62,160.999,60C164.5,58.499,167,55.499,167,51.5"/>
	<path fill="#72541A" d="M216.502,25c-7.002-7.5-16.001-12.5-26.001-14.001c-13.999-2-30-2.998-48.999-2.998l-28.323-0.405
		C106.13,7.195,99.021,7,92,7c-16.499,0-33.501,1.001-48.999,3C22.5,13.001,7,30.999,7,51.5C7,60,12.5,67.5,20.999,69.5
		C24.5,70.501,27,73.499,27,77.5V157c0,11.001,8.999,20,20,20h140c11.001,0,20-8.999,20-20V78.001c0-4.001,2.5-7.002,6.001-8
		c8.501-2,13.999-9.001,13.999-17.5C227,42.5,223.001,32.5,216.502,25z M37,157V77.5C37,69,31.5,61.5,23.001,59.5
		C19.5,58.499,17,55.501,17,51.5C17,35.999,29,22.5,44.5,20c15-2,31.499-3,47.5-3c4.334,0,8.704,0.081,13.072,0.238
		c0.464,0.168,0.946,0.263,1.428,0.263c11.501,0.5,22.502,1.499,33,3c0.632,0.084,1.26,0.193,1.884,0.313
		c8.226,1.605,15.321,6.596,19.946,13.315C164.914,39.509,167,45.753,167,52c0,3.999-2.5,7-6.001,8C152.498,62,147,69,147,77.5V157
		c0,5.498-4.502,10-10,10H47C41.5,167,37,162.498,37,157z M210.999,60C202.498,62,197,69,197,77.5V157c0,5.498-4.502,10-10,10h-32.5
		c1.499-2.998,2.5-6.499,2.998-10V77.5c0-4.001,2.5-7,6.001-8c8.501-2,13.999-8.999,13.999-17.5c0-10-3.999-20-10.498-27.5
		c-0.901-0.901-1.802-1.723-2.703-2.517c-1.482-1.439-3.073-2.768-4.758-3.98c10.985,0.497,20.973,0.999,29.961,2.498
		c7.5,0.999,14.502,4.5,19.502,10.498C214.002,37,217,44.5,217,52C217,55.999,214.5,59,210.999,60z"/>
	<path fill="#E9CBA4" d="M154.5,26.5C159.5,32,162,39,162,47c0,3.999-2.5,7-6.001,8C147.498,57,142,64.5,142,72.5V157
		c0,2.998-2.002,5-5,5H38.499c2.002,2.998,5,5,8.501,5h90c5.498,0,10-4.502,10-10V77.5c0-8.501,5.498-16.001,13.501-18
		c3.999-1.001,6.499-4.001,6.499-8C167,41.5,162,32.5,154.5,26.5"/>
	<g id="holes">
		<path fill="#E2A359" d="M92,37.5c2.759,0,5,2.241,5,5c0,2.761-2.241,5-5,5s-5-2.239-5-5C87,39.742,89.241,37.5,92,37.5"/>
		<path fill="#E2A359" d="M122,37.5c2.759,0,5,2.241,5,5c0,2.761-2.241,5-5,5s-5-2.239-5-5C117,39.742,119.241,37.5,122,37.5"/>
		<path fill="#E2A359" d="M107,57.5c2.759,0,5,2.241,5,5c0,2.761-2.241,5-5,5s-5-2.239-5-5C102,59.742,104.241,57.5,107,57.5"/>
		<path fill="#E2A359" d="M62,37.5c2.759,0,5,2.241,5,5c0,2.761-2.241,5-5,5s-5-2.239-5-5C57,39.742,59.241,37.5,62,37.5"/>
		<path fill="#E2A359" d="M92,77.5c2.759,0,5,2.241,5,5c0,2.761-2.241,5-5,5s-5-2.239-5-5C87,79.742,89.241,77.5,92,77.5"/>
		<path fill="#E2A359" d="M122,77.5c2.759,0,5,2.241,5,5c0,2.761-2.241,5-5,5s-5-2.239-5-5C117,79.742,119.241,77.5,122,77.5"/>
		<path fill="#E2A359" d="M62,77.5c2.759,0,5,2.241,5,5c0,2.761-2.241,5-5,5s-5-2.239-5-5C57,79.742,59.241,77.5,62,77.5"/>
		<path fill="#E2A359" d="M77,57.5c2.759,0,5,2.241,5,5c0,2.761-2.241,5-5,5s-5-2.239-5-5C72,59.742,74.241,57.5,77,57.5"/>
		<path fill="#E2A359" d="M107,97.503c2.759,0,5,2.236,5,5c0,2.759-2.241,5-5,5s-5-2.241-5-5C102,99.739,104.241,97.503,107,97.503"
			/>
		<path fill="#E2A359" d="M77,97.503c2.759,0,5,2.236,5,5c0,2.759-2.241,5-5,5s-5-2.241-5-5C72,99.739,74.241,97.503,77,97.503"/>
		<path fill="#E2A359" d="M92,117.503c2.759,0,5,2.236,5,5c0,2.759-2.241,5-5,5s-5-2.241-5-5C87,119.739,89.241,117.503,92,117.503"
			/>
		<path fill="#E2A359" d="M122,117.503c2.759,0,5,2.236,5,5c0,2.759-2.241,5-5,5s-5-2.241-5-5
			C117,119.739,119.241,117.503,122,117.503"/>
		<path fill="#E2A359" d="M62,117.503c2.759,0,5,2.236,5,5c0,2.759-2.241,5-5,5s-5-2.241-5-5C57,119.739,59.241,117.503,62,117.503"
			/>
		<path fill="#E2A359" d="M107,137.503c2.759,0,5,2.236,5,5c0,2.759-2.241,5-5,5s-5-2.241-5-5
			C102,139.739,104.241,137.503,107,137.503"/>
		<path fill="#E2A359" d="M77,137.503c2.759,0,5,2.236,5,5c0,2.759-2.241,5-5,5s-5-2.241-5-5C72,139.739,74.241,137.503,77,137.503"
			/>
	</g>
	<path fill="#8E4C20" d="M209.667,31c-2.998-3.501-8.001-6.5-12-8.5c1.001,1.001,3.085,3.499,3.583,4.5c5,5.5,8.003,13,8.003,20.5
		c0,3.999-2.5,7.5-6.001,8c-2.002,0.498-3.999,1.499-6.001,2.5c-3.999,2.998-8.501,4.5-13.501,4.5h-1.997c-3.003,0-5,2-5,5
		s1.997,5,5,5h2.5c2.998,0,5,2,5,5v74.998c0,3.003-2.002,5-5,5h-15c-6.499,0-12.002,4.004-15.503,9.502h33.003
		c1.997,0,3.998-0.249,5.497-1.25c2.998-1.499,5.25-4.249,5.25-7.75l0.125-2.625L198.753,77c0-8,5.495-15.029,11.999-15.999
		c5.876-0.875,6.915-5.333,6.915-9.335c0-6.499-0.833-12.333-5.833-17.833L209.667,31z"/>
</g>
</svg>
